<svg width="500" height="212" viewBox="0 0 500 212" fill="none" xmlns="http://www.w3.org/2000/svg">
<path d="M22.63 78.88C16.03 78.88 10.7133 76.9367 6.68 73.05C2.72 69.09 0.74 63.81 0.74 57.21V21.57C0.74 15.0433 2.72 9.83666 6.68 5.95C10.7133 2.06333 16.03 0.12 22.63 0.12C29.3033 0.12 34.62 2.06333 38.58 5.95C42.6133 9.83666 44.63 15.0433 44.63 21.57V22.78C44.63 23.1467 44.4833 23.4767 44.19 23.77C43.97 23.99 43.6767 24.1 43.31 24.1L30.44 24.65C29.56 24.65 29.12 24.2467 29.12 23.44V20.58C29.12 18.4533 28.5333 16.73 27.36 15.41C26.1867 14.09 24.61 13.43 22.63 13.43C20.7233 13.43 19.1833 14.09 18.01 15.41C16.8367 16.73 16.25 18.4533 16.25 20.58V58.53C16.25 60.6567 16.8367 62.38 18.01 63.7C19.1833 64.9467 20.7233 65.57 22.63 65.57C24.61 65.57 26.1867 64.9467 27.36 63.7C28.5333 62.38 29.12 60.6567 29.12 58.53V55.56C29.12 55.1933 29.23 54.9 29.45 54.68C29.7433 54.3867 30.0733 54.24 30.44 54.24L43.31 54.79C43.6767 54.79 43.97 54.9367 44.19 55.23C44.4833 55.45 44.63 55.7433 44.63 56.11V57.21C44.63 63.81 42.6133 69.09 38.58 73.05C34.5467 76.9367 29.23 78.88 22.63 78.88ZM71.7983 78.88C65.2716 78.88 60.1383 77.23 56.3983 73.93C52.7316 70.63 50.8983 66.12 50.8983 60.4V39.06C50.8983 33.4867 52.7683 29.0133 56.5083 25.64C60.2483 22.2667 65.3449 20.58 71.7983 20.58C78.3249 20.58 83.4583 22.2667 87.1983 25.64C90.9383 29.0133 92.8083 33.4867 92.8083 39.06V60.4C92.8083 66.12 90.9383 70.63 87.1983 73.93C83.5316 77.23 78.3983 78.88 71.7983 78.88ZM71.7983 65.46C73.4116 65.46 74.7316 64.8733 75.7583 63.7C76.7849 62.5267 77.2983 61.0233 77.2983 59.19V40.16C77.2983 38.3267 76.7849 36.8233 75.7583 35.65C74.7316 34.4767 73.4116 33.89 71.7983 33.89C70.1849 33.89 68.8649 34.4767 67.8383 35.65C66.8849 36.8233 66.4083 38.3267 66.4083 40.16V59.19C66.4083 61.0233 66.8849 62.5267 67.8383 63.7C68.8649 64.8733 70.1849 65.46 71.7983 65.46ZM120.35 78.88C113.897 78.88 108.8 77.23 105.06 73.93C101.394 70.63 99.5604 66.12 99.5604 60.4V39.06C99.5604 33.4867 101.394 29.0133 105.06 25.64C108.8 22.2667 113.897 20.58 120.35 20.58C126.804 20.58 131.864 22.23 135.53 25.53C139.27 28.83 141.14 33.12 141.14 38.4V40.38C141.14 40.7467 140.994 41.0767 140.7 41.37C140.48 41.59 140.187 41.7 139.82 41.7L126.95 42.25C126.07 42.25 125.63 41.81 125.63 40.93V39.61C125.63 37.9967 125.117 36.64 124.09 35.54C123.137 34.44 121.89 33.89 120.35 33.89C118.737 33.89 117.454 34.4767 116.5 35.65C115.547 36.8233 115.07 38.3633 115.07 40.27V59.19C115.07 61.0967 115.547 62.6367 116.5 63.81C117.454 64.9833 118.737 65.57 120.35 65.57C121.89 65.57 123.137 65.02 124.09 63.92C125.117 62.7467 125.63 61.39 125.63 59.85V58.42C125.63 58.0533 125.74 57.76 125.96 57.54C126.254 57.2467 126.584 57.1 126.95 57.1L139.82 57.21C140.187 57.21 140.48 57.3567 140.7 57.65C140.994 57.87 141.14 58.1633 141.14 58.53V61.06C141.14 66.4867 139.27 70.8133 135.53 74.04C131.864 77.2667 126.804 78.88 120.35 78.88ZM168.156 78.88C161.629 78.88 156.496 77.23 152.756 73.93C149.089 70.63 147.256 66.12 147.256 60.4V39.06C147.256 33.4867 149.126 29.0133 152.866 25.64C156.606 22.2667 161.702 20.58 168.156 20.58C174.682 20.58 179.816 22.2667 183.556 25.64C187.296 29.0133 189.166 33.4867 189.166 39.06V60.4C189.166 66.12 187.296 70.63 183.556 73.93C179.889 77.23 174.756 78.88 168.156 78.88ZM168.156 65.46C169.769 65.46 171.089 64.8733 172.116 63.7C173.142 62.5267 173.656 61.0233 173.656 59.19V40.16C173.656 38.3267 173.142 36.8233 172.116 35.65C171.089 34.4767 169.769 33.89 168.156 33.89C166.542 33.89 165.222 34.4767 164.196 35.65C163.242 36.8233 162.766 38.3267 162.766 40.16V59.19C162.766 61.0233 163.242 62.5267 164.196 63.7C165.222 64.8733 166.542 65.46 168.156 65.46ZM27.58 131.58C32.64 131.58 36.4533 133.23 39.02 136.53C41.66 139.757 42.98 144.23 42.98 149.95V171.4C42.98 177.34 41.66 181.923 39.02 185.15C36.38 188.303 32.5667 189.88 27.58 189.88C25.9667 189.88 24.28 189.587 22.52 189C20.76 188.34 19.1467 187.203 17.68 185.59C17.5333 185.37 17.3867 185.297 17.24 185.37C17.0933 185.443 17.02 185.59 17.02 185.81V208.14C17.02 208.507 16.8733 208.8 16.58 209.02C16.36 209.313 16.0667 209.46 15.7 209.46H2.83C2.46333 209.46 2.13333 209.313 1.84 209.02C1.62 208.8 1.51 208.507 1.51 208.14V133.78C1.51 133.413 1.62 133.12 1.84 132.9C2.13333 132.607 2.46333 132.46 2.83 132.46H15.7C16.0667 132.46 16.36 132.607 16.58 132.9C16.8733 133.12 17.02 133.413 17.02 133.78V135.54C17.02 135.687 17.0933 135.76 17.24 135.76C17.5333 135.76 17.8267 135.577 18.12 135.21C20.6133 132.79 23.7667 131.58 27.58 131.58ZM27.47 151.16C27.47 149.253 26.9933 147.713 26.04 146.54C25.0867 145.367 23.8033 144.78 22.19 144.78C20.65 144.78 19.4033 145.367 18.45 146.54C17.4967 147.713 17.02 149.253 17.02 151.16V170.19C17.02 172.097 17.4967 173.637 18.45 174.81C19.4033 175.983 20.65 176.57 22.19 176.57C23.8033 176.57 25.0867 175.983 26.04 174.81C26.9933 173.637 27.47 172.097 27.47 170.19V151.16ZM76.7766 131.58C81.7633 131.58 85.5033 133.23 87.9966 136.53C90.49 139.83 91.7366 144.45 91.7366 150.39V187.68C91.7366 188.047 91.59 188.377 91.2966 188.67C91.0766 188.89 90.7833 189 90.4166 189H77.5466C77.18 189 76.85 188.89 76.5566 188.67C76.3366 188.377 76.2266 188.047 76.2266 187.68V151.6C76.2266 149.473 75.7866 147.823 74.9066 146.65C74.1 145.477 72.89 144.89 71.2766 144.89C69.59 144.89 68.27 145.513 67.3166 146.76C66.4366 147.933 65.9966 149.62 65.9966 151.82V187.68C65.9966 188.047 65.85 188.377 65.5566 188.67C65.3366 188.89 65.0433 189 64.6766 189H51.8066C51.44 189 51.11 188.89 50.8166 188.67C50.5966 188.377 50.4866 188.047 50.4866 187.68V113.32C50.4866 112.953 50.5966 112.66 50.8166 112.44C51.11 112.147 51.44 112 51.8066 112H64.6766C65.0433 112 65.3366 112.147 65.5566 112.44C65.85 112.66 65.9966 112.953 65.9966 113.32V135.87C65.9966 136.09 66.07 136.2 66.2166 136.2C66.4366 136.2 66.6933 136.053 66.9866 135.76C69.3333 132.973 72.5966 131.58 76.7766 131.58ZM119.816 189.88C113.289 189.88 108.156 188.23 104.416 184.93C100.749 181.63 98.9159 177.12 98.9159 171.4V150.06C98.9159 144.487 100.786 140.013 104.526 136.64C108.266 133.267 113.363 131.58 119.816 131.58C126.343 131.58 131.476 133.267 135.216 136.64C138.956 140.013 140.826 144.487 140.826 150.06V171.4C140.826 177.12 138.956 181.63 135.216 184.93C131.549 188.23 126.416 189.88 119.816 189.88ZM119.816 176.46C121.429 176.46 122.749 175.873 123.776 174.7C124.803 173.527 125.316 172.023 125.316 170.19V151.16C125.316 149.327 124.803 147.823 123.776 146.65C122.749 145.477 121.429 144.89 119.816 144.89C118.203 144.89 116.883 145.477 115.856 146.65C114.903 147.823 114.426 149.327 114.426 151.16V170.19C114.426 172.023 114.903 173.527 115.856 174.7C116.883 175.873 118.203 176.46 119.816 176.46ZM174.088 142.03C174.088 142.397 173.941 142.727 173.648 143.02C173.428 143.24 173.135 143.35 172.768 143.35H166.608C166.241 143.35 166.058 143.533 166.058 143.9V170.08C166.058 172.207 166.461 173.673 167.268 174.48C168.075 175.287 169.285 175.653 170.898 175.58H171.668C172.035 175.58 172.328 175.727 172.548 176.02C172.841 176.24 172.988 176.533 172.988 176.9V187.68C172.988 188.047 172.841 188.377 172.548 188.67C172.328 188.89 172.035 189 171.668 189H167.268C161.915 189 157.881 188.12 155.168 186.36C152.455 184.527 151.098 181.08 151.098 176.02V143.9C151.098 143.533 150.915 143.35 150.548 143.35H146.918C146.551 143.35 146.221 143.24 145.928 143.02C145.708 142.727 145.598 142.397 145.598 142.03V133.78C145.598 133.413 145.708 133.12 145.928 132.9C146.221 132.607 146.551 132.46 146.918 132.46H150.548C150.915 132.46 151.098 132.277 151.098 131.91V119.7C151.098 119.333 151.208 119.04 151.428 118.82C151.721 118.527 152.051 118.38 152.418 118.38H164.738C165.105 118.38 165.398 118.527 165.618 118.82C165.911 119.04 166.058 119.333 166.058 119.7V131.91C166.058 132.277 166.241 132.46 166.608 132.46H172.768C173.135 132.46 173.428 132.607 173.648 132.9C173.941 133.12 174.088 133.413 174.088 133.78V142.03ZM200.49 189.88C193.963 189.88 188.83 188.23 185.09 184.93C181.423 181.63 179.59 177.12 179.59 171.4V150.06C179.59 144.487 181.46 140.013 185.2 136.64C188.94 133.267 194.036 131.58 200.49 131.58C207.016 131.58 212.15 133.267 215.89 136.64C219.63 140.013 221.5 144.487 221.5 150.06V171.4C221.5 177.12 219.63 181.63 215.89 184.93C212.223 188.23 207.09 189.88 200.49 189.88ZM200.49 176.46C202.103 176.46 203.423 175.873 204.45 174.7C205.476 173.527 205.99 172.023 205.99 170.19V151.16C205.99 149.327 205.476 147.823 204.45 146.65C203.423 145.477 202.103 144.89 200.49 144.89C198.876 144.89 197.556 145.477 196.53 146.65C195.576 147.823 195.1 149.327 195.1 151.16V170.19C195.1 172.023 195.576 173.527 196.53 174.7C197.556 175.873 198.876 176.46 200.49 176.46ZM254.212 133.78C254.212 133.413 254.322 133.12 254.542 132.9C254.835 132.607 255.165 132.46 255.532 132.46H268.402C268.768 132.46 269.062 132.607 269.282 132.9C269.575 133.12 269.722 133.413 269.722 133.78V186.36C269.722 194.5 267.778 200.77 263.892 205.17C260.078 209.57 253.185 211.77 243.212 211.77C241.232 211.77 239.692 211.733 238.592 211.66C237.712 211.587 237.272 211.11 237.272 210.23V199.45C237.272 198.497 237.748 198.093 238.702 198.24C243.028 198.387 246.292 197.947 248.492 196.92C250.765 195.967 252.268 194.5 253.002 192.52C253.808 190.54 254.212 187.937 254.212 184.71C254.212 184.49 254.138 184.38 253.992 184.38C253.845 184.38 253.698 184.49 253.552 184.71C252.232 186.47 250.618 187.717 248.712 188.45C246.878 189.11 245.082 189.44 243.322 189.44C238.262 189.44 234.485 187.827 231.992 184.6C229.498 181.3 228.252 176.753 228.252 170.96V150.06C228.252 144.12 229.498 139.573 231.992 136.42C234.558 133.193 238.335 131.58 243.322 131.58C247.795 131.58 251.205 133.23 253.552 136.53C253.698 136.75 253.845 136.823 253.992 136.75C254.138 136.677 254.212 136.53 254.212 136.31V133.78ZM248.932 176.02C250.472 176.02 251.718 175.433 252.672 174.26C253.698 173.087 254.212 171.583 254.212 169.75V151.16C254.212 149.327 253.698 147.823 252.672 146.65C251.718 145.477 250.472 144.89 248.932 144.89C247.392 144.89 246.145 145.477 245.192 146.65C244.238 147.823 243.762 149.327 243.762 151.16V169.75C243.762 171.583 244.238 173.087 245.192 174.26C246.145 175.433 247.392 176.02 248.932 176.02ZM302.876 131.8C304.856 131.8 306.396 132.167 307.496 132.9C308.083 133.267 308.303 133.817 308.156 134.55L306.066 147.42C305.993 148.227 305.48 148.52 304.526 148.3C303.72 148.007 302.73 147.86 301.556 147.86C300.456 147.86 299.503 148.007 298.696 148.3C297.01 148.593 295.653 149.62 294.626 151.38C293.6 153.067 293.086 155.047 293.086 157.32V187.57C293.086 187.937 292.94 188.267 292.646 188.56C292.426 188.78 292.133 188.89 291.766 188.89H278.896C278.53 188.89 278.2 188.78 277.906 188.56C277.686 188.267 277.576 187.937 277.576 187.57V133.78C277.576 133.413 277.686 133.12 277.906 132.9C278.2 132.607 278.53 132.46 278.896 132.46H291.766C292.133 132.46 292.426 132.607 292.646 132.9C292.94 133.12 293.086 133.413 293.086 133.78V138.07C293.086 138.363 293.123 138.547 293.196 138.62C293.343 138.62 293.49 138.51 293.636 138.29C295.616 133.963 298.696 131.8 302.876 131.8ZM333.163 131.58C339.397 131.58 344.457 133.267 348.343 136.64C352.23 140.013 354.173 144.45 354.173 149.95V187.68C354.173 188.047 354.027 188.377 353.733 188.67C353.513 188.89 353.22 189 352.853 189H339.983C339.617 189 339.287 188.89 338.993 188.67C338.773 188.377 338.663 188.047 338.663 187.68V185.26C338.663 185.04 338.59 184.893 338.443 184.82C338.297 184.747 338.15 184.82 338.003 185.04C335.583 188.12 331.843 189.733 326.783 189.88C322.53 189.88 318.827 188.707 315.673 186.36C312.593 184.013 311.053 179.54 311.053 172.94C311.053 166.12 312.923 161.427 316.663 158.86C320.477 156.293 325.94 155.01 333.053 155.01H338.113C338.48 155.01 338.663 154.827 338.663 154.46V151.71C338.663 149.73 338.113 148.117 337.013 146.87C335.987 145.55 334.667 144.89 333.053 144.89C331.807 144.89 330.743 145.293 329.863 146.1C329.057 146.833 328.543 147.897 328.323 149.29C328.25 150.17 327.773 150.61 326.893 150.61L313.693 150.5C312.813 150.5 312.373 150.06 312.373 149.18C312.74 143.827 314.83 139.573 318.643 136.42C322.457 133.193 327.297 131.58 333.163 131.58ZM332.063 177.89C333.75 177.89 335.253 177.34 336.573 176.24C337.967 175.067 338.663 173.527 338.663 171.62V166.45C338.663 166.083 338.48 165.9 338.113 165.9H333.603C331.623 165.9 330.01 166.487 328.763 167.66C327.59 168.76 327.003 170.3 327.003 172.28C327.003 174.113 327.443 175.507 328.323 176.46C329.277 177.413 330.523 177.89 332.063 177.89ZM388.195 131.58C393.255 131.58 397.069 133.23 399.635 136.53C402.275 139.757 403.595 144.23 403.595 149.95V171.4C403.595 177.34 402.275 181.923 399.635 185.15C396.995 188.303 393.182 189.88 388.195 189.88C386.582 189.88 384.895 189.587 383.135 189C381.375 188.34 379.762 187.203 378.295 185.59C378.149 185.37 378.002 185.297 377.855 185.37C377.709 185.443 377.635 185.59 377.635 185.81V208.14C377.635 208.507 377.489 208.8 377.195 209.02C376.975 209.313 376.682 209.46 376.315 209.46H363.445C363.079 209.46 362.749 209.313 362.455 209.02C362.235 208.8 362.125 208.507 362.125 208.14V133.78C362.125 133.413 362.235 133.12 362.455 132.9C362.749 132.607 363.079 132.46 363.445 132.46H376.315C376.682 132.46 376.975 132.607 377.195 132.9C377.489 133.12 377.635 133.413 377.635 133.78V135.54C377.635 135.687 377.709 135.76 377.855 135.76C378.149 135.76 378.442 135.577 378.735 135.21C381.229 132.79 384.382 131.58 388.195 131.58ZM388.085 151.16C388.085 149.253 387.609 147.713 386.655 146.54C385.702 145.367 384.419 144.78 382.805 144.78C381.265 144.78 380.019 145.367 379.065 146.54C378.112 147.713 377.635 149.253 377.635 151.16V170.19C377.635 172.097 378.112 173.637 379.065 174.81C380.019 175.983 381.265 176.57 382.805 176.57C384.419 176.57 385.702 175.983 386.655 174.81C387.609 173.637 388.085 172.097 388.085 170.19V151.16ZM437.392 131.58C442.379 131.58 446.119 133.23 448.612 136.53C451.105 139.83 452.352 144.45 452.352 150.39V187.68C452.352 188.047 452.205 188.377 451.912 188.67C451.692 188.89 451.399 189 451.032 189H438.162C437.795 189 437.465 188.89 437.172 188.67C436.952 188.377 436.842 188.047 436.842 187.68V151.6C436.842 149.473 436.402 147.823 435.522 146.65C434.715 145.477 433.505 144.89 431.892 144.89C430.205 144.89 428.885 145.513 427.932 146.76C427.052 147.933 426.612 149.62 426.612 151.82V187.68C426.612 188.047 426.465 188.377 426.172 188.67C425.952 188.89 425.659 189 425.292 189H412.422C412.055 189 411.725 188.89 411.432 188.67C411.212 188.377 411.102 188.047 411.102 187.68V113.32C411.102 112.953 411.212 112.66 411.432 112.44C411.725 112.147 412.055 112 412.422 112H425.292C425.659 112 425.952 112.147 426.172 112.44C426.465 112.66 426.612 112.953 426.612 113.32V135.87C426.612 136.09 426.685 136.2 426.832 136.2C427.052 136.2 427.309 136.053 427.602 135.76C429.949 132.973 433.212 131.58 437.392 131.58ZM479.221 189.77C472.988 189.77 468.001 188.303 464.261 185.37C460.594 182.363 458.761 178.367 458.761 173.38V172.61C458.761 172.243 458.871 171.95 459.091 171.73C459.384 171.437 459.714 171.29 460.081 171.29H472.181C472.548 171.29 472.841 171.437 473.061 171.73C473.354 171.95 473.501 172.243 473.501 172.61V172.94C473.501 174.48 474.051 175.763 475.151 176.79C476.251 177.743 477.608 178.22 479.221 178.22C480.688 178.22 481.824 177.817 482.631 177.01C483.511 176.13 483.951 175.03 483.951 173.71C483.951 172.097 483.254 170.85 481.861 169.97C480.468 169.017 478.891 168.247 477.131 167.66C475.444 167 474.271 166.56 473.611 166.34C469.578 164.873 466.168 162.857 463.381 160.29C460.668 157.65 459.311 153.873 459.311 148.96C459.311 143.607 461.071 139.39 464.591 136.31C468.111 133.23 472.804 131.69 478.671 131.69C484.758 131.69 489.561 133.303 493.081 136.53C496.674 139.757 498.471 144.12 498.471 149.62C498.471 149.987 498.324 150.317 498.031 150.61C497.811 150.83 497.518 150.94 497.151 150.94H485.381C485.014 150.94 484.684 150.83 484.391 150.61C484.171 150.317 484.061 149.987 484.061 149.62V148.74C484.061 147.273 483.584 146.1 482.631 145.22C481.751 144.267 480.578 143.79 479.111 143.79C477.571 143.79 476.361 144.303 475.481 145.33C474.601 146.283 474.161 147.42 474.161 148.74C474.161 150.5 474.894 151.893 476.361 152.92C477.901 153.873 480.211 154.937 483.291 156.11C486.444 157.283 489.121 158.493 491.321 159.74C493.594 160.913 495.538 162.637 497.151 164.91C498.764 167.11 499.571 169.897 499.571 173.27C499.571 178.33 497.701 182.363 493.961 185.37C490.294 188.303 485.381 189.77 479.221 189.77Z" fill="#1C2E35"/>
</svg>
